<svg xmlns="http://www.w3.org/2000/svg" viewBox="0 0 96 96" role="img" aria-label="coupon">
  <defs>
    <linearGradient id="g" x1="16" y1="16" x2="80" y2="80" gradientUnits="userSpaceOnUse">
      <stop stop-color="#ffdb4d"/>
      <stop offset="1" stop-color="#ff6b00"/>
    </linearGradient>
  </defs>
  <path d="M18 32a8 8 0 0 1 8-8h44a8 8 0 0 1 8 8v8a10 10 0 0 0 0 16v8a8 8 0 0 1-8 8H26a8 8 0 0 1-8-8v-8a10 10 0 0 0 0-16v-8Z" fill="url(#g)"/>
  <path d="M37 59 59 37M38 39h.1M58 57h.1" stroke="#fff" stroke-width="7" stroke-linecap="round"/>
</svg>
