<svg xmlns="http://www.w3.org/2000/svg" viewBox="0 0 840 270" role="img" aria-label="campus sale banner">
  <defs>
    <linearGradient id="bg" x1="34" y1="16" x2="785" y2="252" gradientUnits="userSpaceOnUse">
      <stop stop-color="#ff4d00"/>
      <stop offset=".58" stop-color="#ff1744"/>
      <stop offset="1" stop-color="#ff8a00"/>
    </linearGradient>
    <linearGradient id="card" x1="0" y1="0" x2="1" y2="1">
      <stop stop-color="#fff"/>
      <stop offset="1" stop-color="#ffe7d6"/>
    </linearGradient>
  </defs>
  <rect width="840" height="270" rx="26" fill="url(#bg)"/>
  <circle cx="724" cy="42" r="96" fill="#fff" opacity=".15"/>
  <circle cx="705" cy="228" r="132" fill="#fff" opacity=".12"/>
  <path d="M0 214c118-44 226-40 323 12 96 52 207 53 333 4 83-32 144-40 184-22v62H0z" fill="#fff" opacity=".12"/>
  <circle cx="168" cy="214" r="78" fill="#ffedc2" opacity=".18"/>
  <rect x="520" y="44" width="122" height="162" rx="24" fill="url(#card)" transform="rotate(-8 581 125)"/>
  <rect x="648" y="70" width="118" height="132" rx="26" fill="#fff2cc" transform="rotate(8 707 136)"/>
  <rect x="558" y="74" width="54" height="90" rx="13" fill="#111827" opacity=".78"/>
  <circle cx="584" cy="181" r="8" fill="#111827" opacity=".78"/>
  <path d="M678 124h50M678 150h42" stroke="#ff4d00" stroke-width="12" stroke-linecap="round"/>
</svg>
